<svg preserveAspectRatio="xMidYMid meet" width="100%" height="100%" overflow="visible" style="display: block;" viewBox="0 0 32.8788 33.3054" fill="none" xmlns="http://www.w3.org/2000/svg">
<path id="Vector" d="M7.6875 32.39C7.08111 31.7794 6.77792 31.0457 6.77792 30.1888C6.77792 29.3315 7.08319 28.5996 7.69375 27.9929C8.30403 27.3865 9.03778 27.0833 9.895 27.0833C10.7522 27.0833 11.484 27.3886 12.0904 27.9992C12.6968 28.6094 13 29.3432 13 30.2004C13 31.0576 12.6949 31.7894 12.0846 32.3958C11.474 33.0022 10.7403 33.3054 9.88333 33.3054C9.02611 33.3054 8.29417 33.0003 7.6875 32.39ZM24.3542 32.39C23.7478 31.7794 23.4446 31.0457 23.4446 30.1888C23.4446 29.3315 23.7499 28.5996 24.3604 27.9929C24.9707 27.3865 25.7044 27.0833 26.5617 27.0833C27.4189 27.0833 28.1507 27.3886 28.7571 27.9992C29.3635 28.6094 29.6667 29.3432 29.6667 30.2004C29.6667 31.0576 29.3615 31.7894 28.7512 32.3958C28.1407 33.0022 27.4069 33.3054 26.55 33.3054C25.6928 33.3054 24.9608 33.0003 24.3542 32.39ZM7.9725 6.08333L12.3612 15.1946H24.25L29.25 6.08333H7.9725ZM6.61125 3.30542H31.1688C31.8071 3.30542 32.2928 3.59486 32.6258 4.17375C32.9586 4.75236 32.9631 5.33333 32.6392 5.91667L26.9167 16.2221C26.6111 16.7593 26.2101 17.1853 25.7138 17.5C25.2174 17.8147 24.6739 17.9721 24.0833 17.9721H11.5279L9.36125 21.9721H29.6667V24.75H9.61125C8.41681 24.75 7.54181 24.3079 6.98625 23.4238C6.43069 22.5393 6.42611 21.5925 6.9725 20.5833L9.5 15.9446L3.27792 2.77792H0V0H5.05583L6.61125 3.30542Z" fill="var(--fill-0, #5A876E)"/>
</svg>
