<svg width="28" height="28" viewBox="0 0 28 28" fill="none" xmlns="http://www.w3.org/2000/svg">
<path d="M20.9471 9.43172C20.8061 9.60103 20.5924 9.69965 20.3663 9.69965H16.8987C16.5259 9.69965 16.2237 9.98912 16.2237 10.3462C16.2237 10.7033 16.5259 10.9928 16.8987 10.9928H19.9813C20.3915 10.9928 20.724 11.3113 20.724 11.7042V19.9921C20.724 20.2839 20.538 20.5462 20.2547 20.6536L1.02053 27.9466C0.309264 28.2163 -0.311824 27.4045 0.171008 26.8362L6.99998 18.7983C7.14103 18.6323 7.35262 18.5359 7.5761 18.5359H11.0482C11.4211 18.5359 11.7233 18.2465 11.7233 17.8894C11.7233 17.5323 11.4211 17.2428 11.0482 17.2428H7.96567C7.55545 17.2428 7.2229 16.9243 7.2229 16.5314V8.02795C7.2229 7.73613 7.40897 7.4739 7.69227 7.36649L26.9795 0.0532897C27.6871 -0.215012 28.3081 0.58828 27.8337 1.15822L20.9471 9.43172Z" fill="#BABABA"/>
</svg>
